<svg id="logo-devday" xmlns="http://www.w3.org/2000/svg" viewBox="0 0 190.87 107.33">
  <defs>
    <style>
      .secondary {
        fill: #ad0f0a;
        transform: translate(-0.67 0);
      }

      .primary {
        fill: #43545c;
        transform: translate(-0.67 0);
      }
    </style>
  </defs>
  <title>Fatec Dev Day</title>
  <g id="day" class="secondary">
    <path d="M140.24,82a16.34,16.34,0,0,1-1.76,7.65A13.7,13.7,0,0,1,134,94.86a12.84,12.84,0,0,1-4.42,1.88,26.49,26.49,0,0,1-5.7.53h-9.71l0-30.57h10a23.62,23.62,0,0,1,5.8.63,12.75,12.75,0,0,1,4.1,1.78,13.38,13.38,0,0,1,4.48,5.21A17.08,17.08,0,0,1,140.24,82ZM132.9,82a12.28,12.28,0,0,0-1-5.17,7.3,7.3,0,0,0-3.13-3.36,7.59,7.59,0,0,0-2.23-.81,20,20,0,0,0-3.43-.22h-1.79l0,19.13h1.79a19.28,19.28,0,0,0,3.72-.25,7.6,7.6,0,0,0,2.31-.93A7.3,7.3,0,0,0,132,87.07,12.67,12.67,0,0,0,132.9,82Z"/>
    <path d="M159.57,97V94.2l-2.48,1.35a12.3,12.3,0,0,1-6.28,1.72c-4.24,0-7.09-2.75-7.09-6.77,0-5,3.88-7.27,8.81-7.27h7.09v-1.4c0-3.07-1.76-4.56-4.88-4.56s-5.15,1.35-5.15,4.15h-5.33V81.11c0-5.37,4.25-8.4,10.43-8.4,6.5,0,10.25,3.25,10.25,8.94V97h-5.37Zm0-9.84h-6.32c-3.3,0-4.06,1.54-4.06,3.12A2.52,2.52,0,0,0,152,92.89a8.47,8.47,0,0,0,4.11-1.17l3.43-1.85V87.11Z"/>
    <path d="M179.94,89.49l4.76-16h6.85L180,107.33h-7.22L176.05,98l-8-24.58h7Z"/>
  </g>
  <g id="dev" class="secondary">
    <path d="M47,82a16.34,16.34,0,0,1-1.76,7.65,13.7,13.7,0,0,1-4.45,5.18,12.84,12.84,0,0,1-4.42,1.88,26.49,26.49,0,0,1-5.7.53H21l0-30.57H31a23.62,23.62,0,0,1,5.8.63,12.75,12.75,0,0,1,4.1,1.78,13.38,13.38,0,0,1,4.48,5.21A17.08,17.08,0,0,1,47,82ZM39.68,82a12.28,12.28,0,0,0-1-5.17,7.3,7.3,0,0,0-3.13-3.36,7.59,7.59,0,0,0-2.23-.81,20,20,0,0,0-3.43-.22H28.12l0,19.13h1.79a19.28,19.28,0,0,0,3.72-.25,7.6,7.6,0,0,0,2.31-.93,7.3,7.3,0,0,0,2.85-3.29A12.67,12.67,0,0,0,39.68,82Z"/>
    <path d="M71.71,89.41c0,4.82-4.14,7.88-10.4,7.88S50.83,94,50.83,88.15V82.53c0-6,4.36-9.72,10.48-9.72s10.44,3.56,10.44,9.81V86.8H56V88c0,3.38,2.25,4.86,5.35,4.86s5.13-1.08,5.13-3.65h5.22v0.23Zm-5.09-6.89c0-3.38-2-5.22-5.27-5.22S56,79.15,56,82.57v0.58H66.62V82.53Z"/>
    <path d="M98.68,73.24L90.49,97.47H82.81L74.74,73.21H81.9l4.89,16.69,4.86-16.68h7Z"/>
  </g>
  <g id="fatec" class="primary">
    <polygon points="10.15 33.03 10.15 56.37 0 56.37 0 0 36.59 0 36.59 8.94 10.15 8.94 10.15 24.09 34.32 24.09 34.32 33.03 10.15 33.03"/>
    <path d="M68.06,56.37V51.75L63.89,54a20.65,20.65,0,0,1-10.54,2.88c-7.12,0-11.89-4.62-11.89-11.37,0-8.33,6.52-12.2,14.78-12.2h11.9V31c0-5.16-3-7.66-8.19-7.66-5.45,0-8.64,2.27-8.64,7H42.37V29.78c0-9,7.13-14.1,17.5-14.1,10.91,0,17.2,5.45,17.2,15V56.37h-9Zm0-16.52H57.45c-5.53,0-6.82,2.58-6.82,5.23,0,2.8,1.74,4.47,4.78,4.47a14.21,14.21,0,0,0,6.9-2l5.75-3.11V39.85Z"/>
    <path d="M103.47,56.37c-9.25,0-15.23-4.62-15.23-13.71V24.25H82.17v-7.8h6.07V5.61h9.39V16.44h11.06v7.8H97.63V42.13c0,4.7,2.12,6.29,6.59,6.29h4.7v8h-5.45Z"/>
    <path d="M148.95,43.8c0,8.11-7,13.26-17.51,13.26-10.3,0-17.65-5.61-17.65-15.38V32.2c0-10.08,7.35-16.37,17.65-16.37S149,21.83,149,32.36v7H122.5v2c0,5.68,3.79,8.18,9,8.18s8.64-1.82,8.64-6.14h8.79V43.8ZM140.38,32.2c0-5.69-3.33-8.79-8.87-8.79s-9,3.1-9,8.87v1h17.88V32.2Z"/>
    <path d="M191.4,41.83c0,10-6.9,15.23-17.28,15.23s-17.19-5.68-17.19-15.61V31.52c0-9.92,6.89-15.69,17.19-15.69s17.28,5.3,17.28,15.31v0.68h-8.87c0-5.68-3.11-8-8.42-8s-8.25,2.72-8.25,8.49v8.33c0,5.76,3,8.49,8.25,8.49s8.42-2.27,8.42-8h8.87v0.68Z"/>
  </g>
</svg>
