<?xml version="1.0" encoding="utf-8"?>
<!-- Generator: Adobe Illustrator 17.1.0, SVG Export Plug-In . SVG Version: 6.00 Build 0)  -->
<!DOCTYPE svg PUBLIC "-//W3C//DTD SVG 1.1//EN" "http://www.w3.org/Graphics/SVG/1.1/DTD/svg11.dtd">
<svg version="1.1" id="logo" xmlns="http://www.w3.org/2000/svg" xmlns:xlink="http://www.w3.org/1999/xlink" x="0px" y="0px"
	 viewBox="0 0 300 150" enable-background="new 0 0 300 150" xml:space="preserve">
<g>
	<path fill="#3D64AC" d="M102.2,70.8L82.5,51.1l-4,4l7.4,7.4l-16,16l19.7,19.7l4-4l-7.4-7.4L102.2,70.8z M78.8,79.1l11.9-11.9
		l2.4,2.4L81.2,81.6L78.8,79.1z"/>
	<g>
		<path fill="#3D64AC" d="M115.8,56.8v6h6.6v3.5h-6.6v13.6c0,3.1,0.9,4.9,3.4,4.9c1.2,0,2-0.1,2.7-0.3l0.2,3.5
			c-0.9,0.3-2.3,0.6-4.1,0.6c-2.1,0-3.9-0.7-4.9-1.9c-1.2-1.4-1.8-3.6-1.8-6.6V66.3h-3.9v-3.5h3.9v-4.7L115.8,56.8z"/>
		<path fill="#3D64AC" d="M147,75.3c0,9.3-6.5,13.4-12.6,13.4c-6.8,0-12.1-5-12.1-13c0-8.4,5.6-13.3,12.5-13.3
			C142.1,62.3,147,67.6,147,75.3z M127.1,75.5c0,5.5,3.1,9.7,7.6,9.7c4.4,0,7.7-4.1,7.7-9.8c0-4.3-2.1-9.6-7.6-9.6
			C129.4,65.8,127.1,70.8,127.1,75.5z"/>
		<path fill="#3D64AC" d="M149.3,71.1c0-3.2-0.1-5.8-0.2-8.2h4.1l0.3,4.3h0.1c1.8-3.1,4.8-4.8,9-4.8c6.1,0,10.7,5.2,10.7,12.8
			c0,9.1-5.6,13.5-11.5,13.5c-3.3,0-6.3-1.5-7.8-4h-0.1v13.7h-4.5V71.1z M153.8,77.8c0,0.7,0.1,1.3,0.2,1.9c0.8,3.2,3.6,5.4,6.9,5.4
			c4.8,0,7.7-4,7.7-9.7c0-5-2.7-9.3-7.5-9.3c-3.1,0-6.1,2.2-6.9,5.6c-0.2,0.6-0.3,1.3-0.3,1.8V77.8z"/>
		<path fill="#3D64AC" d="M182,56.8v6h6.6v3.5H182v13.6c0,3.1,0.9,4.9,3.4,4.9c1.2,0,2-0.1,2.7-0.3l0.2,3.5
			c-0.9,0.3-2.3,0.6-4.1,0.6c-2.1,0-3.9-0.7-4.9-1.9c-1.3-1.4-1.8-3.6-1.8-6.6V66.3h-3.9v-3.5h3.9v-4.7L182,56.8z"/>
		<path fill="#3D64AC" d="M209.4,82c0,2.2,0.1,4.3,0.4,6h-4.1l-0.4-3.2h-0.2c-1.4,2-4.1,3.8-7.7,3.8c-5.1,0-7.7-3.6-7.7-7.2
			c0-6.1,5.4-9.4,15.2-9.4v-0.5c0-2-0.6-5.8-5.7-5.8c-2.4,0-4.8,0.7-6.6,1.9l-1-3.1c2.1-1.3,5.2-2.2,8.3-2.2c7.7,0,9.6,5.3,9.6,10.3
			V82z M205,75.2c-5-0.1-10.7,0.8-10.7,5.7c0,3,2,4.4,4.3,4.4c3.3,0,5.5-2.1,6.2-4.2c0.2-0.5,0.2-1,0.2-1.5V75.2z"/>
		<path fill="#3D64AC" d="M212.8,51.1h4.6v37h-4.6V51.1z"/>
	</g>
</g>
</svg>
