<?xml version="1.0" encoding="iso-8859-1"?>
<!-- Generator: Adobe Illustrator 19.0.0, SVG Export Plug-In . SVG Version: 6.00 Build 0)  -->
<svg version="1.1" id="Layer_1" xmlns="http://www.w3.org/2000/svg" xmlns:xlink="http://www.w3.org/1999/xlink" x="0px" y="0px"
	 viewBox="0 0 395.636 395.636" style="enable-background:new 0 0 395.636 395.636;" xml:space="preserve">
<g>
	<path style="fill:#FFFFFF;" d="M147.135,37.915c-1.228-1.228-1.875-2.457-3.103-3.685l0,0c-31.547-31.547-82.23-31.547-113.713,0
		s-31.547,82.23,0,113.713l0,0l0.646,0.646C49.455,95.386,92.703,53.947,147.135,37.915z"/>
	<path style="fill:#FFFFFF;" d="M365.317,148.525C365.317,148.525,365.317,147.943,365.317,148.525L365.317,148.525
		c32.129-32.129,32.129-82.812,0.646-113.713l0,0c-31.547-31.547-82.23-31.547-113.778,0c-1.228,1.228-2.457,2.457-3.103,3.685
		C302.933,54.594,346.182,95.386,365.317,148.525z"/>
</g>
<path style="fill:#FDBF5E;" d="M197.818,31.127L197.818,31.127c-98.263,0-178.036,79.127-178.036,177.39l0,0
	c0,98.263,79.774,178.036,178.036,178.036l0,0c98.263,0,178.036-79.774,178.036-178.036l0,0
	C375.855,110.255,296.081,31.127,197.818,31.127z"/>
<path style="fill:#FFFFFF;" d="M197.818,361.859c-84.687,0-153.277-68.59-153.277-153.277
	c-0.065-84.105,68.59-152.76,153.277-152.76s153.277,68.59,153.277,153.277C351.095,293.204,282.505,361.859,197.818,361.859z"/>
<g>
	<rect x="191.612" y="74.376" style="fill:#193651;" width="12.347" height="12.347"/>
	<rect x="191.612" y="330.893" style="fill:#193651;" width="12.347" height="12.347"/>
	
		<rect x="127.603" y="91.128" transform="matrix(0.5 0.866 -0.866 0.5 151.1515 -67.2034)" style="fill:#193651;" width="12.347" height="12.347"/>
	
		<rect x="255.941" y="313.729" transform="matrix(0.5 0.866 -0.866 0.5 408.096 -67.0491)" style="fill:#193651;" width="12.347" height="12.347"/>
	
		<rect x="80.509" y="138.061" transform="matrix(0.866 0.5 -0.5 0.866 83.7327 -24.0177)" style="fill:#193651;" width="12.347" height="12.347"/>
	
		<rect x="302.957" y="266.703" transform="matrix(0.866 0.5 -0.5 0.866 177.8588 -118.0087)" style="fill:#193651;" width="12.347" height="12.347"/>
	<rect x="63.03" y="202.311" style="fill:#193651;" width="12.347" height="12.347"/>
	<rect x="320.194" y="202.311" style="fill:#193651;" width="12.347" height="12.347"/>
	
		<rect x="80.486" y="266.618" transform="matrix(-0.866 0.5 -0.5 -0.866 298.1081 465.7033)" style="fill:#193651;" width="12.347" height="12.347"/>
	
		<rect x="303.041" y="138.195" transform="matrix(-0.866 0.5 -0.5 -0.866 649.186 114.7841)" style="fill:#193651;" width="12.347" height="12.347"/>
	
		<rect x="127.401" y="313.585" transform="matrix(-0.4999 0.8661 -0.8661 -0.4999 477.2872 363.9165)" style="fill:#193651;" width="12.348" height="12.348"/>
	
		<rect x="256.061" y="91.165" transform="matrix(0.8661 0.4999 -0.4999 0.8661 83.7755 -118.0543)" style="fill:#193651;" width="12.348" height="12.348"/>
</g>
<circle style="fill:#FFFFFF;" cx="197.818" cy="208.517" r="18.554"/>
<g>
	<path style="fill:#193651;" d="M278.82,202.311h-56.889c-2.457-8.663-9.244-15.451-17.907-17.907v-80.356h-12.347v81.002
		c-10.537,2.457-18.554,12.347-18.554,24.113c0,13.576,11.119,24.76,24.76,24.76c11.766,0,21.01-8.016,24.113-18.554h56.889v-13.059
		H278.82z M197.818,220.865c-6.788,0-12.347-5.56-12.347-12.347c0-6.788,5.56-12.347,12.347-12.347
		c6.788,0,12.347,5.56,12.347,12.347C210.166,215.305,204.606,220.865,197.818,220.865z"/>
	<path style="fill:#193651;" d="M382.061,208.517c0-20.428-3.685-40.21-9.891-58.699l-0.129-0.323
		c14.61-15.515,23.596-36.396,23.596-59.41c0-47.838-38.788-86.562-86.562-86.562c-24.76,0-47.063,10.408-62.836,27.087
		l-0.194-0.065c-15.451-4.331-31.547-6.206-48.226-6.206c-16.485,0-32.97,2.392-48.226,6.659
		C133.754,15.03,111.838,5.204,87.596,5.204C39.24,5.204,0,44.444,0,92.8c0,22.756,8.663,43.442,22.82,59.022
		c-5.818,17.972-9.244,37.042-9.244,56.76c0,56.889,25.988,107.572,66.133,140.929L47.58,381.576l8.663,8.663L89.6,356.881
		c30.319,22.238,68.008,35.232,108.154,35.232c39.564,0,76.024-12.347,106.343-34.004l32.129,32.129l8.663-8.663l-30.901-30.901
		C355.426,317.964,382.061,265.988,382.061,208.517z M309.075,16.582c40.598,0,73.438,32.905,73.438,73.503
		c0,17.196-5.948,33.034-15.838,45.576C346.764,89.244,308.04,52.59,260.267,35.459l-0.194-0.065
		C273.067,23.693,290.198,16.582,309.075,16.582z M87.596,18.133c18.166,0,34.844,6.529,47.774,17.325l0,0
		C87.143,52.719,48.226,89.826,28.444,136.824l-0.388,1.034c-9.503-12.541-15.127-28.121-15.127-45.059
		C12.929,51.556,46.352,18.133,87.596,18.133z M197.818,380.347c-94.578,0-171.83-77.253-171.83-171.83
		c5.56-95.224,72.921-169.374,171.83-171.248c94.578,0,171.83,77.253,171.83,171.83
		C369.648,303.095,292.396,380.347,197.818,380.347z"/>
</g>
<g>
</g>
<g>
</g>
<g>
</g>
<g>
</g>
<g>
</g>
<g>
</g>
<g>
</g>
<g>
</g>
<g>
</g>
<g>
</g>
<g>
</g>
<g>
</g>
<g>
</g>
<g>
</g>
<g>
</g>
</svg>
