<?xml version="1.0" encoding="iso-8859-1"?>
<!-- Generator: Adobe Illustrator 19.0.0, SVG Export Plug-In . SVG Version: 6.00 Build 0)  -->
<svg version="1.1" id="Layer_1" xmlns="http://www.w3.org/2000/svg" xmlns:xlink="http://www.w3.org/1999/xlink" x="0px" y="0px"
	 viewBox="0 0 395.636 395.636" style="enable-background:new 0 0 395.636 395.636;" xml:space="preserve">
<rect y="24.113" style="fill:#F16051;" width="395.636" height="73.568"/>
<path style="fill:#FFFFFF;" d="M6.206,97.681v256.517c0,17.325,13.576,30.901,30.901,30.901h267.055l85.333-85.333V97.681"/>
<g>
	<rect x="307.265" y="4.331" style="fill:#193651;" width="12.347" height="39.564"/>
	<rect x="272.614" y="4.331" style="fill:#193651;" width="12.347" height="39.564"/>
	<rect x="110.675" y="4.331" style="fill:#193651;" width="12.347" height="39.564"/>
	<rect x="76.024" y="4.331" style="fill:#193651;" width="12.347" height="39.564"/>
</g>
<path style="fill:#FDBF5E;" d="M389.43,299.83h-66.715c-10.537,0-18.554,8.016-18.554,18.554v66.78L389.43,299.83z"/>
<g>
	<path style="fill:#193651;" d="M383.289,97.681v195.943h-60.574c-13.576,0-24.76,11.119-24.76,24.76v60.574H37.107
		c-13.576,0-24.76-11.119-24.76-24.76V97.681H0v256.517c0,20.428,16.679,37.107,37.107,37.107h269.511l89.018-89.018V97.681H383.289
		z M310.303,370.295v-51.911c0-6.788,5.56-12.347,12.347-12.347h51.911L310.303,370.295z"/>
	<rect x="71.693" y="155.798" style="fill:#193651;" width="12.347" height="12.347"/>
	<rect x="119.919" y="155.798" style="fill:#193651;" width="12.347" height="12.347"/>
	<rect x="167.499" y="155.798" style="fill:#193651;" width="12.347" height="12.347"/>
	<rect x="215.725" y="155.798" style="fill:#193651;" width="12.347" height="12.347"/>
	<rect x="263.37" y="155.798" style="fill:#193651;" width="12.347" height="12.347"/>
	<rect x="311.596" y="155.798" style="fill:#193651;" width="12.347" height="12.347"/>
	<rect x="71.693" y="201.503" style="fill:#193651;" width="12.347" height="12.347"/>
	<rect x="119.919" y="201.503" style="fill:#193651;" width="12.347" height="12.347"/>
	<rect x="167.499" y="201.503" style="fill:#193651;" width="12.347" height="12.347"/>
	<rect x="215.725" y="201.503" style="fill:#193651;" width="12.347" height="12.347"/>
	<rect x="263.37" y="201.503" style="fill:#193651;" width="12.347" height="12.347"/>
	<rect x="311.596" y="201.503" style="fill:#193651;" width="12.347" height="12.347"/>
	<rect x="71.693" y="246.626" style="fill:#193651;" width="12.347" height="12.347"/>
	<rect x="119.919" y="246.626" style="fill:#193651;" width="12.347" height="12.347"/>
	<rect x="167.499" y="246.626" style="fill:#193651;" width="12.347" height="12.347"/>
	<rect x="215.725" y="246.626" style="fill:#193651;" width="12.347" height="12.347"/>
	<rect x="263.37" y="246.626" style="fill:#193651;" width="12.347" height="12.347"/>
	<rect x="311.596" y="246.626" style="fill:#193651;" width="12.347" height="12.347"/>
	<rect x="71.693" y="292.396" style="fill:#193651;" width="12.347" height="12.347"/>
	<rect x="119.919" y="292.396" style="fill:#193651;" width="12.347" height="12.347"/>
	<rect x="167.499" y="292.396" style="fill:#193651;" width="12.347" height="12.347"/>
	<rect x="215.725" y="292.396" style="fill:#193651;" width="12.347" height="12.347"/>
	<rect x="263.37" y="292.396" style="fill:#193651;" width="12.347" height="12.347"/>
</g>
<g>
</g>
<g>
</g>
<g>
</g>
<g>
</g>
<g>
</g>
<g>
</g>
<g>
</g>
<g>
</g>
<g>
</g>
<g>
</g>
<g>
</g>
<g>
</g>
<g>
</g>
<g>
</g>
<g>
</g>
</svg>
