<svg xmlns="http://www.w3.org/2000/svg" width="18" height="18"><path fill="#3a4250" fill-rule="evenodd" d="M9 0C4.03 0 0 4.03 0 9c0 3.98 2.58 7.35 6.15 8.54.45.08.62-.2.62-.43v-1.67c-2.52.55-3.04-1.06-3.04-1.06-.4-1.04-1-1.32-1-1.32-.82-.56.06-.54.06-.54.9.07 1.37.93 1.37.93.8 1.38 2.1.98 2.62.75.07-.58.3-.98.56-1.2-2-.23-4.1-1-4.1-4.45 0-.98.35-1.8.92-2.42-.1-.2-.4-1.13.1-2.37 0 0 .75-.24 2.47.93.72-.2 1.5-.3 2.25-.3.76 0 1.54.1 2.25.3 1.72-1.17 2.48-.93 2.48-.93.5 1.24.18 2.16.1 2.38.56.64.9 1.45.9 2.43 0 3.46-2.1 4.22-4.1 4.44.32.28.6.83.6 1.67v2.47c0 .25.16.53.62.44C15.42 16.34 18 12.98 18 9c0-4.97-4.03-9-9-9"/></svg>