<?xml version="1.0" encoding="utf-8"?>
<!-- Generator: Adobe Illustrator 21.0.0, SVG Export Plug-In . SVG Version: 6.00 Build 0)  -->
<svg version="1.1" id="Layer_1" xmlns="http://www.w3.org/2000/svg" xmlns:xlink="http://www.w3.org/1999/xlink" x="0px" y="0px"
	 viewBox="0 0 595.3 511.9" style="enable-background:new 0 0 595.3 511.9;" xml:space="preserve">
<style type="text/css">
	.st0{fill:#00AAAD;}
	.st1{fill:#005496;}
</style>
<g>
	<g>
		<path class="st0" d="M102.9,395.1l2.2,0l2.6,9.1c0.5,1.8,1,3.6,1.4,5.3c0.2-0.8,0.5-1.6,0.7-2.5c0.3-0.9,0.6-1.8,0.9-2.8l3.1-9.2
			h1.9l3,9c0.3,1,0.6,2,0.9,2.8c0.2,0.8,0.5,1.7,0.7,2.6c0.4-1.6,0.9-3.4,1.5-5.3l2.8-9.1l2.2,0l-5.5,16.7l-1.9,0l-2.9-8.8
			c-0.3-1-0.6-2-0.9-3c-0.3-1-0.5-1.9-0.7-2.7c-0.2,0.9-0.5,1.8-0.8,2.8c-0.3,1-0.6,2-1,2.9l-3.1,8.8l-2,0L102.9,395.1z"/>
		<path class="st0" d="M136.4,412.2c-2.2,0-4.1-0.8-5.6-2.4c-1.5-1.6-2.2-3.7-2.2-6.2c0-2.7,0.8-4.9,2.4-6.6
			c1.5-1.5,3.4-2.3,5.7-2.3c2.3,0,4.2,0.8,5.7,2.4c1.5,1.6,2.2,3.6,2.2,6.2c0,2.9-0.9,5.1-2.6,6.8
			C140.4,411.4,138.6,412.2,136.4,412.2z M136.5,410.4c1.7,0,3-0.7,4.2-2c1.1-1.3,1.7-3,1.7-5.1c0-1.7-0.4-3.3-1.3-4.6
			c-1-1.6-2.5-2.3-4.4-2.3c-1.9,0-3.3,0.7-4.4,2.2c-0.9,1.3-1.4,2.9-1.4,4.8c0,2,0.5,3.7,1.6,5C133.5,409.8,134.8,410.4,136.5,410.4
			z"/>
		<path class="st0" d="M148.6,411.8l0-11.6c0-0.6,0-1.6-0.1-3c0-1.4-0.1-2.1-0.1-2.1h1.9l0.1,3.3c0.4-1.1,1.1-2,1.9-2.7
			c0.8-0.7,1.8-1,2.9-1c0.3,0,0.6,0,0.7,0v2.1c-0.2,0-0.3-0.1-0.5-0.1c-0.2,0-0.3,0-0.4,0c-1.1,0-2,0.4-2.8,1.2s-1.2,1.9-1.5,3.2
			c0,0.3-0.1,0.5-0.1,0.7c0,0.2,0,0.5,0,0.8v9.1H148.6z"/>
		<path class="st0" d="M159.5,411.8v-24.7h2.2v24.7H159.5z"/>
		<path class="st0" d="M178.6,387.1h2.2v20.6c0,0.7,0,1.3,0,1.8c0,0.5,0,1.3,0.1,2.2h-1.9l-0.1-3.1c-0.5,1-1.3,1.8-2.2,2.4
			c-1.1,0.7-2.3,1-3.7,1c-2.1,0-3.8-0.8-5.2-2.3c-1.4-1.6-2-3.6-2-6.1c0-2.7,0.7-4.9,2.2-6.5c1.4-1.7,3.2-2.5,5.4-2.5
			c1.3,0,2.4,0.3,3.4,0.9c0.8,0.5,1.5,1.1,1.9,1.9L178.6,387.1z M178.6,404.9v-3.2c0-0.3,0-0.6,0-0.9c-0.1-0.3-0.1-0.4-0.1-0.5
			c-0.3-1.1-0.9-2-1.7-2.7c-0.9-0.8-2-1.1-3.3-1.1c-1.7,0-3.1,0.7-4.1,2c-1,1.3-1.5,3-1.5,5.1c0,1.9,0.5,3.5,1.4,4.8
			c1,1.4,2.4,2.1,4.2,2.1c1.2,0,2.2-0.4,3.1-1.1c0.9-0.7,1.6-1.7,1.9-3C178.6,405.9,178.6,405.5,178.6,404.9z"/>
		<path class="st0" d="M184.2,395.1l2.2,0l2.6,9.1c0.5,1.8,1,3.6,1.4,5.3c0.2-0.8,0.5-1.6,0.7-2.5c0.3-0.9,0.6-1.8,0.9-2.8l3.1-9.2
			h1.9l3,9c0.3,1,0.6,2,0.9,2.8s0.5,1.7,0.7,2.6c0.4-1.6,0.9-3.4,1.5-5.3l2.8-9.1l2.2,0l-5.5,16.7l-1.9,0l-2.9-8.8
			c-0.3-1-0.6-2-0.9-3s-0.5-1.9-0.7-2.7c-0.2,0.9-0.5,1.8-0.8,2.8c-0.3,1-0.6,2-1,2.9l-3.1,8.8l-2,0L184.2,395.1z"/>
		<path class="st0" d="M212.4,391.6c-0.5,0-0.8-0.2-1.1-0.5c-0.3-0.3-0.4-0.7-0.4-1.2c0-0.5,0.1-0.9,0.4-1.2
			c0.3-0.3,0.7-0.5,1.1-0.5c0.5,0,0.9,0.2,1.1,0.5c0.3,0.3,0.4,0.7,0.4,1.2c0,0.5-0.1,0.9-0.4,1.2
			C213.3,391.5,212.9,391.6,212.4,391.6z M213.6,411.8h-2.2v-16.7h2.2V411.8z"/>
		<path class="st0" d="M230.5,387.1h2.2v20.6c0,0.7,0,1.3,0,1.8c0,0.5,0,1.3,0.1,2.2h-1.9l-0.1-3.1c-0.5,1-1.3,1.8-2.2,2.4
			c-1.1,0.7-2.3,1-3.7,1c-2.1,0-3.8-0.8-5.2-2.3c-1.4-1.6-2-3.6-2-6.1c0-2.7,0.7-4.9,2.2-6.5c1.4-1.7,3.2-2.5,5.4-2.5
			c1.3,0,2.4,0.3,3.4,0.9c0.8,0.5,1.5,1.1,1.9,1.9L230.5,387.1z M230.5,404.9v-3.2c0-0.3,0-0.6,0-0.9c-0.1-0.3-0.1-0.4-0.1-0.5
			c-0.3-1.1-0.9-2-1.7-2.7c-0.9-0.8-2-1.1-3.3-1.1c-1.7,0-3.1,0.7-4.1,2c-1,1.3-1.5,3-1.5,5.1c0,1.9,0.5,3.5,1.4,4.8
			c1,1.4,2.4,2.1,4.2,2.1c1.2,0,2.2-0.4,3.1-1.1c0.9-0.7,1.6-1.7,1.9-3C230.5,405.9,230.5,405.5,230.5,404.9z"/>
		<path class="st0" d="M251.1,403.5h-12.2c0,2.4,0.6,4.1,1.8,5.3c1.1,1.1,2.5,1.6,4.3,1.6c1.1,0,1.9-0.1,2.6-0.2
			c0.7-0.2,1.3-0.4,2-0.7l0.5,1.7c-0.7,0.3-1.6,0.6-2.6,0.8c-1,0.2-2,0.3-2.8,0.3c-2.5,0-4.4-0.8-5.8-2.3c-1.4-1.5-2.1-3.6-2.1-6.1
			c0-2.7,0.7-4.9,2.1-6.6c1.4-1.7,3.3-2.5,5.5-2.5c2.4,0,4.2,0.9,5.4,2.8c0.9,1.4,1.3,3,1.3,4.8v0.5
			C251.1,403,251.1,403.2,251.1,403.5z M238.9,401.9h10c0-1.4-0.3-2.6-0.9-3.6c-0.8-1.3-2.1-1.9-3.8-1.9c-1.6,0-2.9,0.6-3.8,1.8
			C239.5,399.2,239.1,400.4,238.9,401.9z"/>
		<path class="st0" d="M262.7,411.8v-12.5c0-0.6,0-1.2-0.1-1.9c0-0.7-0.1-1.5-0.1-2.3h1.9l0.1,2.9c0.6-1,1.3-1.8,2.1-2.3
			c0.9-0.6,2-0.9,3.3-0.9c1.1,0,2.1,0.3,3,1c0.9,0.7,1.5,1.5,1.8,2.6c0.6-1,1.2-1.7,1.8-2.2c0.5-0.4,1.1-0.8,1.7-1
			c0.6-0.2,1.3-0.3,2.2-0.3c1.3,0,2.5,0.4,3.4,1.3c1.4,1.3,2.1,3.2,2.1,5.9v9.8H284v-9.6c0-1.8-0.3-3.2-1-4.2
			c-0.7-1-1.7-1.5-3.1-1.5c-0.9,0-1.8,0.3-2.5,0.9c-0.7,0.6-1.3,1.3-1.6,2.2c-0.2,0.5-0.2,1.1-0.2,1.6v10.6h-2.2v-10.3
			c0-1.5-0.3-2.7-1-3.6c-0.7-0.9-1.6-1.4-2.9-1.4c-1,0-1.9,0.3-2.7,1s-1.3,1.5-1.6,2.5c-0.2,0.5-0.2,1.1-0.2,1.6v10.2H262.7z"/>
		<path class="st0" d="M297.9,412.2c-2.2,0-4.1-0.8-5.6-2.4c-1.5-1.6-2.2-3.7-2.2-6.2c0-2.7,0.8-4.9,2.4-6.6
			c1.5-1.5,3.4-2.3,5.7-2.3c2.3,0,4.2,0.8,5.7,2.4c1.5,1.6,2.2,3.6,2.2,6.2c0,2.9-0.9,5.1-2.6,6.8
			C301.8,411.4,300,412.2,297.9,412.2z M297.9,410.4c1.7,0,3-0.7,4.2-2c1.1-1.3,1.7-3,1.7-5.1c0-1.7-0.4-3.3-1.3-4.6
			c-1-1.6-2.5-2.3-4.4-2.3c-1.9,0-3.3,0.7-4.4,2.2c-0.9,1.3-1.4,2.9-1.4,4.8c0,2,0.5,3.7,1.6,5C294.9,409.8,296.3,410.4,297.9,410.4
			z"/>
		<path class="st0" d="M310.1,407.8v-20.6h2.2V398c0.6-1,1.4-1.9,2.4-2.4c1-0.6,2.2-0.9,3.6-0.9c2.1,0,3.8,0.8,5.1,2.4
			c1.3,1.6,2,3.6,2,6.2c0,2.8-0.8,5.1-2.3,6.7c-1.4,1.5-3.1,2.2-5.1,2.2c-2.6,0-4.6-1.1-5.8-3.3l-0.2,2.9h-1.9c0-0.4,0-1.2,0.1-2.2
			C310,408.5,310.1,407.9,310.1,407.8z M312.2,402v3.2c0,0.1,0,0.3,0,0.5c0,0.2,0.1,0.4,0.1,0.7c0.3,1.2,1,2.1,1.9,2.9
			c0.9,0.7,2,1.1,3.3,1.1c1.8,0,3.2-0.7,4.2-2c1-1.3,1.5-3,1.5-5.1c0-1.9-0.5-3.5-1.4-4.8c-1-1.4-2.4-2-4.1-2
			c-1.2,0-2.3,0.4-3.2,1.1c-1,0.8-1.6,1.8-2,3.1c-0.1,0.3-0.1,0.5-0.2,0.7C312.2,401.5,312.2,401.8,312.2,402z"/>
		<path class="st0" d="M330.5,391.6c-0.5,0-0.8-0.2-1.1-0.5c-0.3-0.3-0.4-0.7-0.4-1.2c0-0.5,0.1-0.9,0.4-1.2
			c0.3-0.3,0.7-0.5,1.1-0.5c0.5,0,0.9,0.2,1.1,0.5c0.3,0.3,0.4,0.7,0.4,1.2c0,0.5-0.1,0.9-0.4,1.2
			C331.4,391.5,331,391.6,330.5,391.6z M331.6,411.8h-2.2v-16.7h2.2V411.8z"/>
		<path class="st0" d="M337,411.8v-24.7h2.2v24.7H337z"/>
		<path class="st0" d="M357.6,403.5h-12.2c0,2.4,0.6,4.1,1.8,5.3c1.1,1.1,2.5,1.6,4.3,1.6c1.1,0,1.9-0.1,2.6-0.2
			c0.7-0.2,1.3-0.4,2-0.7l0.5,1.7c-0.7,0.3-1.6,0.6-2.6,0.8c-1,0.2-2,0.3-2.8,0.3c-2.5,0-4.4-0.8-5.8-2.3c-1.4-1.5-2.1-3.6-2.1-6.1
			c0-2.7,0.7-4.9,2.1-6.6c1.4-1.7,3.3-2.5,5.5-2.5c2.4,0,4.2,0.9,5.4,2.8c0.9,1.4,1.3,3,1.3,4.8v0.5
			C357.6,403,357.6,403.2,357.6,403.5z M345.4,401.9h10c0-1.4-0.3-2.6-0.9-3.6c-0.8-1.3-2.1-1.9-3.8-1.9c-1.6,0-2.9,0.6-3.8,1.8
			C346,399.2,345.5,400.4,345.4,401.9z"/>
		<path class="st0" d="M367.9,411l0.7-1.7c0.5,0.3,1.1,0.6,1.8,0.8c0.7,0.2,1.4,0.3,2.1,0.3c1.2,0,2.1-0.3,2.7-0.8s0.9-1.2,0.9-2.1
			c0-0.8-0.3-1.5-0.8-2c-0.5-0.5-1.4-1-2.6-1.5c-2.9-1.1-4.3-2.6-4.3-4.6c0-1.3,0.5-2.4,1.5-3.3c1-0.9,2.3-1.4,3.9-1.4
			c0.8,0,1.5,0.1,2.1,0.3c0.6,0.2,1.2,0.4,1.7,0.8l-0.7,1.7c-0.5-0.3-1-0.6-1.6-0.8c-0.6-0.2-1.1-0.2-1.7-0.2c-1,0-1.7,0.3-2.3,0.8
			c-0.5,0.5-0.8,1.1-0.8,1.9c0,0.8,0.3,1.4,0.8,1.9c0.5,0.4,1.3,0.9,2.5,1.3c1.5,0.6,2.5,1.2,3.2,1.9c0.8,0.8,1.1,1.8,1.1,3
			c0,1.5-0.5,2.6-1.6,3.5c-1.1,0.9-2.5,1.3-4.3,1.3c-0.9,0-1.7-0.1-2.4-0.3C369.3,411.6,368.6,411.3,367.9,411z"/>
		<path class="st0" d="M388.9,412.2c-2.2,0-4.1-0.8-5.6-2.4c-1.5-1.6-2.2-3.7-2.2-6.2c0-2.7,0.8-4.9,2.4-6.6
			c1.5-1.5,3.4-2.3,5.7-2.3c2.3,0,4.2,0.8,5.7,2.4c1.5,1.6,2.2,3.6,2.2,6.2c0,2.9-0.9,5.1-2.6,6.8
			C392.9,411.4,391.1,412.2,388.9,412.2z M389,410.4c1.7,0,3-0.7,4.2-2c1.1-1.3,1.7-3,1.7-5.1c0-1.7-0.4-3.3-1.3-4.6
			c-1-1.6-2.5-2.3-4.4-2.3c-1.9,0-3.3,0.7-4.4,2.2c-0.9,1.3-1.4,2.9-1.4,4.8c0,2,0.5,3.7,1.6,5C386,409.8,387.3,410.4,389,410.4z"/>
		<path class="st0" d="M401.1,411.8v-24.7h2.2v24.7H401.1z"/>
		<path class="st0" d="M422,395.1v12.4c0,0.6,0,1.3,0.1,2.3c0,1,0.1,1.6,0.1,2h-1.9l-0.1-2.9c-0.6,0.9-1.3,1.6-2.1,2.2
			c-1.1,0.7-2.3,1.1-3.6,1.1c-1.5,0-2.7-0.5-3.7-1.4c-1.3-1.2-2-3.2-2-6v-9.7h2.2v9.3c0,1.9,0.3,3.3,0.9,4.3
			c0.7,1.1,1.8,1.7,3.3,1.7c1.1,0,2-0.3,2.9-0.9c0.8-0.6,1.4-1.4,1.7-2.3c0.2-0.5,0.3-1.1,0.3-1.7v-10.3H422z"/>
		<path class="st0" d="M428.1,392l2.2-0.7v3.8h4.6v1.7h-4.6v10.2c0,1.1,0.2,2,0.6,2.5c0.4,0.6,1,0.9,1.8,0.9c0.8,0,1.4-0.1,1.8-0.3
			l0.2,1.7c-0.3,0.1-0.6,0.2-1.1,0.3c-0.4,0.1-0.9,0.1-1.4,0.1c-1.3,0-2.3-0.4-3-1.3c-0.7-0.8-1.1-2.2-1.1-4.1v-10.1h-2.7v-1.7h2.7
			V392z"/>
		<path class="st0" d="M439.5,391.6c-0.5,0-0.8-0.2-1.1-0.5c-0.3-0.3-0.4-0.7-0.4-1.2c0-0.5,0.1-0.9,0.4-1.2
			c0.3-0.3,0.7-0.5,1.1-0.5c0.5,0,0.9,0.2,1.1,0.5c0.3,0.3,0.4,0.7,0.4,1.2c0,0.5-0.1,0.9-0.4,1.2
			C440.3,391.5,439.9,391.6,439.5,391.6z M440.6,411.8h-2.2v-16.7h2.2V411.8z"/>
		<path class="st0" d="M452.5,412.2c-2.2,0-4.1-0.8-5.6-2.4c-1.5-1.6-2.2-3.7-2.2-6.2c0-2.7,0.8-4.9,2.4-6.6
			c1.5-1.5,3.4-2.3,5.7-2.3c2.3,0,4.2,0.8,5.7,2.4c1.5,1.6,2.2,3.6,2.2,6.2c0,2.9-0.9,5.1-2.6,6.8
			C456.5,411.4,454.6,412.2,452.5,412.2z M452.5,410.4c1.7,0,3-0.7,4.2-2c1.1-1.3,1.7-3,1.7-5.1c0-1.7-0.4-3.3-1.3-4.6
			c-1-1.6-2.5-2.3-4.4-2.3c-1.9,0-3.3,0.7-4.4,2.2c-0.9,1.3-1.4,2.9-1.4,4.8c0,2,0.5,3.7,1.6,5C449.5,409.8,450.9,410.4,452.5,410.4
			z"/>
		<path class="st0" d="M464.7,411.8v-12.5c0-0.6,0-1.2-0.1-1.9c0-0.7-0.1-1.5-0.1-2.3h1.9l0.1,2.9c0.5-1,1.3-1.7,2.2-2.3
			c1-0.6,2.2-1,3.6-1c1.4,0,2.6,0.4,3.6,1.3c1.5,1.2,2.2,3.2,2.2,5.8v10h-2.2V402c0-1.6-0.3-2.9-1-3.9c-0.7-1.1-1.9-1.7-3.4-1.7
			c-1.1,0-2.1,0.3-2.9,1c-0.9,0.7-1.4,1.5-1.8,2.6c-0.1,0.4-0.2,0.9-0.2,1.5v10.3H464.7z"/>
		<path class="st0" d="M482.3,411l0.7-1.7c0.5,0.3,1.1,0.6,1.8,0.8c0.7,0.2,1.4,0.3,2.1,0.3c1.2,0,2.1-0.3,2.7-0.8s0.9-1.2,0.9-2.1
			c0-0.8-0.3-1.5-0.8-2c-0.5-0.5-1.4-1-2.6-1.5c-2.9-1.1-4.3-2.6-4.3-4.6c0-1.3,0.5-2.4,1.5-3.3c1-0.9,2.3-1.4,3.9-1.4
			c0.8,0,1.5,0.1,2.1,0.3c0.6,0.2,1.2,0.4,1.7,0.8l-0.7,1.7c-0.5-0.3-1-0.6-1.6-0.8c-0.6-0.2-1.1-0.2-1.7-0.2c-1,0-1.7,0.3-2.3,0.8
			c-0.5,0.5-0.8,1.1-0.8,1.9c0,0.8,0.3,1.4,0.8,1.9c0.5,0.4,1.3,0.9,2.5,1.3c1.5,0.6,2.5,1.2,3.2,1.9c0.8,0.8,1.1,1.8,1.1,3
			c0,1.5-0.5,2.6-1.6,3.5c-1.1,0.9-2.5,1.3-4.3,1.3c-0.9,0-1.7-0.1-2.4-0.3C483.6,411.6,482.9,411.3,482.3,411z"/>
	</g>
	<g>
		<path class="st0" d="M118.5,297.4v7.3c0,1.4-1.1,2.5-2.5,2.5h-10.6c-1.4,0-2.5-1.1-2.5-2.5v-7.3c0-1.4,1.1-2.5,2.5-2.5H116
			C117.4,294.9,118.5,296,118.5,297.4z"/>
		<path class="st0" d="M489.9,297.4v7.3c0,1.4-1.1,2.5-2.5,2.5h-10.6c-1.4,0-2.5-1.1-2.5-2.5v-7.3c0-1.4,1.1-2.5,2.5-2.5h10.6
			C488.8,294.9,489.9,296,489.9,297.4z"/>
		<path class="st1" d="M118.5,316.4v56.6c0,1.3-1.1,2.4-2.4,2.4h-10.7c-1.3,0-2.4-1.1-2.4-2.4v-56.6c0-1.3,1.1-2.4,2.4-2.4h10.7
			C117.4,314,118.5,315.1,118.5,316.4z"/>
		<path class="st1" d="M124.7,373v-56.4c0-1.4,1.1-2.5,2.5-2.5h7.5c1.2,0,2.2,0.8,2.4,2l0.6,2.8c0.4,1.8,2.5,2.6,3.9,1.4
			c5.1-4.2,10.8-6.2,17.1-6.2c14.5,0,21.8,7.6,21.8,22.7V373c0,1.4-1.1,2.5-2.5,2.5h-10.5c-1.4,0-2.5-1.1-2.5-2.5v-36.2
			c0-6.8-3.4-10.2-10.1-10.2c-4.7,0-9.3,1.8-13.8,5.3c-0.6,0.5-0.9,1.2-0.9,1.9V373c0,1.4-1.1,2.5-2.5,2.5h-10.5
			C125.9,375.4,124.7,374.3,124.7,373z"/>
		<path class="st1" d="M303.1,314h13.2c0.6,0,1.2,0.4,1.4,1l13.2,38.1c0.4,1.3,2.3,1.3,2.7,0l13.8-38.1c0.2-0.6,0.8-1,1.4-1H362
			c1,0,1.7,1,1.3,2l-23.8,58.5c-0.2,0.5-0.8,0.9-1.3,0.9h-12.8c-0.6,0-1.1-0.4-1.4-0.9L301.7,316C301.4,315,302.1,314,303.1,314z"/>
		<path class="st1" d="M362.5,356.3c0-12.2,8.9-18.3,26.7-18.3c3.7,0,7.4,0.3,11.1,0.9c0.7,0.1,1.4-0.4,1.4-1.2v-3.2
			c0-5.5-4-8.2-11.9-8.2c-6.3,0-13.3,0.9-20.9,2.6c-0.7,0.2-1.5-0.4-1.5-1.2v-9.8c0-0.6,0.4-1,0.9-1.2c7.8-1.8,15-2.7,21.4-2.7
			c18.2,0,27.4,6.7,27.4,20.2v40c0,0.7-0.5,1.2-1.2,1.2h-7.3c-0.3,0-0.6-0.1-0.8-0.3l-4.5-4.5c-0.4-0.4-1-0.5-1.5-0.1
			c-5.1,3.3-10.7,5-16.9,5C370,375.4,362.5,369.1,362.5,356.3z M389.2,348.5c-7.4,0-11.2,2.5-11.2,7.6c0,5.5,3.1,8.2,9.4,8.2
			c4.9,0,9.6-1.5,13.8-4.4c0.3-0.2,0.5-0.6,0.5-1v-8.2c0-0.6-0.4-1.1-1-1.2C397.1,348.9,393.3,348.5,389.2,348.5z"/>
		<path class="st1" d="M470.4,372.2c0,0.8-0.6,1.6-1.4,1.7c-4.6,1-9.4,1.4-14.4,1.4c-21.8,0-32.7-10.6-32.7-31.9
			c0-19.7,10.9-29.5,32.7-29.5c5,0,9.8,0.5,14.4,1.4c0.8,0.2,1.4,0.9,1.4,1.7v8.7c0,1.1-1,2-2.1,1.7c-4.3-0.9-8.5-1.3-12.5-1.3
			c-12.3,0-18.4,5.8-18.4,17.3c0,13.1,6.1,19.6,18.4,19.6c4,0,8.2-0.4,12.5-1.3c1.1-0.2,2.1,0.6,2.1,1.7V372.2z"/>
		<path class="st1" d="M490.1,317.1v55.3c0,1.7-1.4,3.1-3.1,3.1h-9.4c-1.7,0-3.1-1.4-3.1-3.1v-55.3c0-1.7,1.4-3.1,3.1-3.1h9.4
			C488.8,314,490.1,315.4,490.1,317.1z"/>
		<path class="st1" d="M186.9,373v-56.4c0-1.4,1.1-2.5,2.5-2.5h7.5c1.2,0,2.2,0.8,2.4,2l0.6,2.8c0.4,1.8,2.5,2.6,3.9,1.4
			c5.1-4.2,10.8-6.2,17.1-6.2c14.5,0,21.8,7.6,21.8,22.7V373c0,1.4-1.1,2.5-2.5,2.5h-10.5c-1.4,0-2.5-1.1-2.5-2.5v-36.2
			c0-6.8-3.4-10.2-10.1-10.2c-4.7,0-9.3,1.8-13.8,5.3c-0.6,0.5-0.9,1.2-0.9,1.9V373c0,1.4-1.1,2.5-2.5,2.5h-10.5
			C188,375.4,186.9,374.3,186.9,373z"/>
		<path class="st1" d="M245.1,345.2c0-21.2,10-31.9,30-31.9c20,0,30,10.6,30,31.9c0,21.2-10,31.8-30,31.8
			C255.2,377,245.2,366.4,245.1,345.2z M275.1,364.8c9.8,0,14.7-6.6,14.7-19.8c0-12.9-4.9-19.4-14.7-19.4c-9.8,0-14.7,6.5-14.7,19.4
			C260.4,358.2,265.3,364.8,275.1,364.8z"/>
	</g>
	<path class="st1" d="M355.6,175.3c-1-3.6-2.7-6.9-5.3-9.8c-1.5-1.6-2.7-3.6-4.2-5.3c-4.7-5.1-9.7-9.9-14.7-14.7
		c-5.6-5.5-11-11.1-16.5-16.7c-2.6-2.6-5.9-2.5-8.5,0c-3.7,3.7-7.3,7.3-11,10.9c-0.7,0.6-0.6,1,0,1.6c3.5,3.4,7,6.9,10.5,10.4
		c7.3,7.2,14.5,14.5,21.8,21.8c3.3,3.3,4.1,7.2,2.9,11.7c-0.8,2.9-2.9,4.7-4.8,6.7c-8.6,8.6-40.3,40.2-48.9,48.8
		c-6,6-12,12.1-18,18.1c-3.9,3.9-9.1,3.9-13,0c-4.1-4.1-8.2-8.2-12.3-12.4c-5.5-5.5-11-11-16.5-16.5c-3.8-3.8-7.2-8-10-12.7
		c-1.5-2.5-2.4-5.3-3-8.2c-0.6-2.6-0.5-5.2-0.1-7.9c0.8-5.9,2.9-11.3,7.1-15.6c8.7-8.9,17.6-17.6,26.2-26.6
		c1.3-1.4,25.9-25.7,27.3-27.1c10.1-10.1,20.1-20.1,30.1-30.2c1.3-1.3,2.7-2.3,5-2.4c-0.7,0-1,0-1.3,0c-9,0-17.9,0.1-26.9,0
		c-5.7-0.1-10.4,2.1-14.4,6c-9.3,9.3-41.6,41.6-50.9,50.9c-5,5-10,9.9-14.9,14.9c-3.5,3.5-6.4,7.5-8.6,11.9
		c-3.8,7.6-5.6,15.6-5.1,24.1c0.2,4.1,0.9,8,2.1,11.8c2.2,7,5.9,13.3,11.1,18.6c14.5,14.6,29,29.1,43.6,43.6
		c0.6,0.6,1.2,1.2,1.9,1.6c2.9,1.8,6,3.3,9.3,3.4c4.6,0.2,9.2,0.4,13.8-0.2c1.8-0.3,3.5-0.8,4.9-2.2c14.2-14.2,28.4-28.4,42.6-42.7
		c6-6.1,35.2-35.1,41.1-41.3c2.3-2.5,4.7-4.8,6.1-8C356.4,186.6,357.3,181,355.6,175.3z"/>
	<path class="st0" d="M385.7,179.5c-0.1-4.8-0.9-9.5-2.4-14c-2.2-6.7-6-12.6-11-17.7c-14.4-14.6-28.9-29-43.4-43.4
		c-2.9-2.9-6.5-4.5-10.4-5c-4.5-0.6-9-0.5-13.5,0c-2.6,0.3-4.9,1.1-6.9,3.1c-20.4,20.6-63.9,64.1-84.4,84.6
		c-7.2,7.2-9.1,18.5-4.6,27.7l0,0l0.4,0.8c0,0.2,0.1,0.3,0.2,0.4l0,0l1.3,1.8c0.1,0.2,0.1,0.3,0.3,0.5c1.4,1.7,2.8,3.6,4.2,5.3
		c4.2,4.9,8.9,9.3,13.4,13.8c6.4,6.4,12.8,12.9,19.2,19.3c2.5,2.5,5.8,2.5,8.3,0c3.7-3.7,7.4-7.4,11.2-11.1c0.5-0.5,0.7-0.8,0.1-1.4
		c-3.1-3-6.1-6-9.1-9.1h0c-0.4-0.4-0.8-0.9-1.3-1.3c-7.4-7.4-14.8-14.7-22.1-22.2c-4.6-4.6-4.3-11.5-0.1-15.9c3.5-3.6,7-7,10.6-10.5
		c11.7-11.7,46.4-46.4,58.1-58.1c4.5-4.5,9.4-4.5,13.9-0.1c8.5,8.5,17.1,17.1,25.6,25.6c3.1,3.2,6.2,6.4,8.9,9.9
		c2.4,3.2,4.8,6.4,5.9,10.3c1.1,4,1.6,8,0.9,12.1c-1,5.7-3.1,10.8-7.2,14.9c-4.4,4.4-31.8,31.9-36.2,36.3
		c-15.6,15.6-31.1,31.2-46.7,46.9c-1.3,1.3-2.6,2.6-4.6,2.9c0.3,0.1,0.6,0.2,0.9,0.2c9.2,0,18.4,0.1,27.5,0c4.8-0.1,9-2,12.4-5.3
		c5.8-5.6,11.4-11.4,17.1-17.1c6.5-6.5,36-36.2,42.5-42.7c3-3,6.1-5.9,9-9c4.2-4.6,7.1-10,9.3-15.8
		C385.1,191,385.8,185.3,385.7,179.5z M257,236.4c-0.2,0.1-0.6,0-1.1-0.2C256.4,236.4,256.8,236.5,257,236.4z M229.1,236.7
		c0.1-0.2,0.4-0.4,0.7-0.4C229.5,236.3,229.3,236.4,229.1,236.7z"/>
</g>
</svg>
