<svg xmlns="http://www.w3.org/2000/svg" viewBox="0 0 384.21 89.55"><defs><style>.cls-1{fill:#458940;}.cls-2{fill:#244258;}.cls-3{fill:#708493;}.cls-4{fill:#73b5b5;}.cls-5{fill:#a2cece;}.cls-6{fill:#939598;}</style></defs><title>lendico-logo-positivo</title><g id="Ebene_4" data-name="Ebene 4"><polygon class="cls-1" points="43.98 11.3 57.23 -0.17 58.59 1.21 44.87 12.18 43.98 11.3"/><polygon class="cls-2" points="6.73 50.31 0 32.33 32.51 -0.17 57.23 -0.17 6.73 50.31"/><polygon class="cls-3" points="0 57.05 0 32.33 50 82.35 32.49 89.56 0 57.05"/><polygon class="cls-4" points="57.2 89.55 32.47 89.55 82.73 39.33 89.72 57.08 57.2 89.55"/><polygon class="cls-5" points="44.87 12.18 57.23 -0.17 89.72 32.34 89.72 57.08 44.87 12.18"/><path class="cls-6" d="M110.06,20.08H121.3V61h22.49v8.24H110.06Z"/><path class="cls-6" d="M185.3,53.2H158.58c0,6.31,4.16,8.93,11.4,8.93,4.93,0,10-.85,12.86-2.08L185,67.83a44.27,44.27,0,0,1-15.09,2.47c-13.78,0-23.1-5.62-23.1-20.1,0-14.32,8.24-19.87,19.71-19.87,11.63,0,19.33,5.54,19.33,18.64A23.53,23.53,0,0,1,185.3,53.2ZM174,47.27c0-6.85-2.7-9.32-7.39-9.32-4.39,0-8,2.51-8,9.32Z"/><path class="cls-6" d="M193.17,33.33c3.93-1.69,11.63-3,18.79-3,10.32,0,19.18,4.08,19.18,15.63V69.22H220V46.42c0-6.85-4-8-8.32-8a18,18,0,0,0-7.47,1.39V69.22H193.17Z"/><path class="cls-6" d="M276.51,67.68a49.16,49.16,0,0,1-16,2.62C247.17,70.3,238,64.75,238,50.2c0-13.63,8.32-19.64,19.72-19.64a23.46,23.46,0,0,1,7.7,1.16V16.39h11.09Zm-16.32-5.54a15.08,15.08,0,0,0,5.23-.85V39.72a13.17,13.17,0,0,0-5.31-1.08c-5.24,0-10.71,2.85-10.71,11.86C249.41,59.82,254.8,62.13,260.19,62.13Z"/><path class="cls-6" d="M291.17,11.84a6.62,6.62,0,1,1-6.62,6.62A6.57,6.57,0,0,1,291.17,11.84Zm-5.55,19.56h11.09V69.22H285.62Z"/><path class="cls-6" d="M326.3,30.33a25.69,25.69,0,0,1,10.94,2.31l-1.46,7.93a16.41,16.41,0,0,0-8.17-2.16c-6.47,0-11.86,3.31-11.86,11.7,0,8.63,5.78,12,12.32,12a18.48,18.48,0,0,0,8.39-2l1.39,7.93c-2.77,1.39-7.7,2.23-11.78,2.23-10.94,0-21.72-5.93-21.72-20.18S314.75,30.33,326.3,30.33Z"/><path class="cls-6" d="M362.8,30.33c11.09,0,21.41,5.62,21.41,19.95s-10.32,20-21.41,20-21.33-5.62-21.33-20S351.71,30.33,362.8,30.33Zm0,8.09c-4.7,0-9.93,2.77-9.93,11.86s5.24,11.86,9.93,11.86,10-2.7,10-11.86C372.81,41.26,367.58,38.41,362.8,38.41Z"/></g></svg>