<svg id="Layer_1" data-name="Layer 1" xmlns="http://www.w3.org/2000/svg" viewBox="0 0 604 115.28"><defs><style>.cls-1{fill:#29bdba;}.cls-2{fill:#939598;}</style></defs><title>lendico-novo</title><polygon class="cls-1" points="73.48 19.28 108.52 13.97 100.57 48.52 73.48 19.28"/><polygon class="cls-1" points="19.88 68.96 11.94 103.5 46.98 98.19 19.88 68.96"/><path class="cls-1" d="M59.2,14A45.63,45.63,0,1,0,92.68,28.66,45.46,45.46,0,0,0,59.2,14m0,14.34a31.28,31.28,0,1,1,0,62.57,31,31,0,0,1-23-10A31.29,31.29,0,0,1,59.2,28.39"/><path class="cls-1" d="M64,64.71a7,7,0,1,0-9.85-.37,7,7,0,0,0,9.85.37"/><path class="cls-2" d="M149.39,95H194V83.82H160.51V28H149.39Zm64-67.08V95H258V83.82H224.49V67.1H258V56H224.49V39.16H258V28Zm64,67h11.12V54.82L333.23,95V27.85H322V68.06L277.36,27.85Zm75.2.1h22.33a32.35,32.35,0,0,0,13-2.66,33.65,33.65,0,0,0,10.68-7.25,34.9,34.9,0,0,0,7.2-10.68,32.87,32.87,0,0,0,0-25.9,34.35,34.35,0,0,0-17.93-17.93,32.06,32.06,0,0,0-13-2.66H352.56Zm11.12-11.21V39.16h11.21a21.59,21.59,0,0,1,8.6,1.74,22.73,22.73,0,0,1,12,12,22.13,22.13,0,0,1,0,17.2,23,23,0,0,1-4.79,7.15,22,22,0,0,1-15.8,6.57ZM427.76,95h11.12V28H427.76Zm51-64.42a34.21,34.21,0,0,0-17.93,18,33,33,0,0,0,0,26,33.75,33.75,0,0,0,7.25,10.63,34.78,34.78,0,0,0,10.68,7.2,33.5,33.5,0,0,0,26,0,34,34,0,0,0,10.68-7.25l-7.93-7.83a21.86,21.86,0,0,1-15.76,6.48,22.19,22.19,0,0,1-8.75-1.74,21.69,21.69,0,0,1-7.1-4.79,23.51,23.51,0,0,1-4.79-7.1,22.05,22.05,0,0,1,0-17.4,23.07,23.07,0,0,1,4.83-7.1,22.43,22.43,0,0,1,7.1-4.79,21.85,21.85,0,0,1,8.7-1.74,21.49,21.49,0,0,1,15.76,6.57l7.93-7.92a34,34,0,0,0-10.68-7.25,33.51,33.51,0,0,0-26,0m56.93,7.2a32.29,32.29,0,0,0-9.86,23.68,32.08,32.08,0,0,0,9.86,23.68,33.37,33.37,0,0,0,47.36,0,31.72,31.72,0,0,0,10-23.68,32.14,32.14,0,0,0-10-23.68,33.37,33.37,0,0,0-47.36,0m39.43,7.92a21.5,21.5,0,0,1,6.57,15.76,22.33,22.33,0,1,1-38.18-15.76,21.81,21.81,0,0,1,15.85-6.57,21.49,21.49,0,0,1,15.76,6.57"/></svg>