<?xml version="1.0" encoding="utf-8"?>
<!-- Generator: Adobe Illustrator 16.0.0, SVG Export Plug-In . SVG Version: 6.00 Build 0)  -->
<!DOCTYPE svg PUBLIC "-//W3C//DTD SVG 1.1//EN" "http://www.w3.org/Graphics/SVG/1.1/DTD/svg11.dtd">
<svg version="1.1" id="Layer_1" xmlns="http://www.w3.org/2000/svg" xmlns:xlink="http://www.w3.org/1999/xlink" x="0px" y="0px"
	 width="800px" height="800px" viewBox="0 0 800 800" enable-background="new 0 0 800 800" xml:space="preserve">
<g>
	<defs>
		<rect id="SVGID_1_" x="80.667" y="-3.333" width="800" height="800"/>
	</defs>
	<clipPath id="SVGID_2_">
		<use xlink:href="#SVGID_1_"  overflow="visible"/>
	</clipPath>
	<path clip-path="url(#SVGID_2_)" fill-rule="evenodd" clip-rule="evenodd" d="M465.312,230.804
		c94.432-2.215,181.7,78.898,176.573,185.017c-2.354,48.68-22.046,89.828-58.092,122.539
		c-36.944,33.527-80.977,48.299-130.654,45.17c-43.869-2.764-81.94-20.141-112.655-51.152
		c-37.479-37.844-54.352-84.264-51.346-137.707C293.899,310.005,366.832,229.558,465.312,230.804z M464.79,565.926
		c89.274,1.191,155.453-71.062,159.297-149.48c2.225-45.392-11.994-85.278-42.954-118.375
		c-30.976-33.114-70.263-49.968-115.319-50.158c-40.584-0.171-76.988,13.683-107.272,41.428
		c-34.506,31.613-52.086,71.509-52.267,117.841c-0.161,41.001,13.999,77.755,42.395,107.964
		C380.036,548.518,418.781,565.758,464.79,565.926z"/>
	<path clip-path="url(#SVGID_2_)" fill-rule="evenodd" clip-rule="evenodd" d="M218.82,320.264c0-7.503,0-13.999,0-20.92
		c16.274,0,32.336,0,48.761,0c0,8.18,0,16.426,0,25.093c-6.396,0-12.656,0-19.526,0c0,6.789,0,13.187,0,20.187
		c-6.992,0-13.391,0-20.187,0c0,6.858,0,13.12,0,19.989c-6.79,0-13.187,0-19.988,0c0,7.229,0,13.861,0,21.105
		c-7.153,0-13.925,0-21.067,0c0,5.131,0,9.653,0,14.601c6.697,0,13.331,0,20.575,0c0,7.153,0,13.928,0,21.301
		c6.992,0,13.389,0,20.187,0c0,6.859,0,13.119,0,19.99c6.786,0,13.186,0,20.186,0c0,6.99,0,13.389,0,20.184
		c6.858,0,13.12,0,19.777,0c0,8.654,0,16.902,0,25.488c-15.944,0-31.874,0-48.422,0c0-6.574,0-13.348,0-20.725
		c-6.992,0-13.388,0-20.187,0c0-6.855,0-13.115,0-19.988c-7.153,0-13.925,0-21.302,0c0-6.99,0-13.387,0-20.186
		c-6.857,0-13.119,0-19.989,0c0-6.785,0-13.186,0-20.188c-6.987,0-13.389,0-20.051,0c0-8.724,0-16.837,0-25.57
		c6.356,0,12.756,0,19.756,0c0-6.993,0-13.392,0-20.187c6.859,0,13.121,0,19.989,0c0-6.792,0-13.187,0-19.989
		c7.229,0,13.861,0,21.105,0c0-6.781,0-13.182,0-20.187C205.426,320.264,211.823,320.264,218.82,320.264z"/>
	<path clip-path="url(#SVGID_2_)" fill-rule="evenodd" clip-rule="evenodd" d="M454.216,513.363
		c-6.154,2.961-11.49,5.527-17.372,8.355c-0.133-1.791-0.611-3.025-0.2-3.521c5.07-6.1,6.893-14.793,15.11-18.502
		c1.443-0.65,2.532-3.715,2.543-5.672c0.157-29.764,0.108-59.529,0.108-89.294c0-10.046-0.364-20.11,0.136-30.131
		c0.308-6.186-2.451-10.683-6.927-13.498c-6.816-4.288-14.491-7.185-21.531-11.153c-2.714-1.53-5.089-4.088-6.923-6.671
		c-5.709-8.04-11.096-8.585-17.264-1.365c-6.395,7.491-14.184,6.6-20.272-2.426c-0.44-0.042-0.968-0.104-1.5-0.141
		c-3.096-0.211-7.027,0.697-9.105-0.864c-3.845-2.89-2.853-7.932-0.733-11.402c1.226-2.007,5.031-3.456,7.635-3.396
		c5.688,0.131,6.697-4.163,8.109-7.639c5.01-12.338,5.226-12.718,18.317-12.625c3.606,0.026,6.689-0.195,9.369-3.334
		c6.829-7.997,16.052-8.225,25.62-7.402c1.812-9.941,6.703-14.089,17.915-13.765c7.089,0.205,14.277,0.809,21.184,2.322
		c5.882,1.289,10.217,5.26,10.85,10.367c6.899,2.28,13.069,4.142,19.079,6.425c1.57,0.597,3.387,2.295,3.818,3.843
		c1.837,6.567,7.012,5.261,11.262,4.671c9.358-1.298,12.928,0.405,15.732,9.324c1.638,5.203,4.349,8.014,10.275,7.713
		c6.748-0.343,9.426,1.86,9.903,6.804c0.602,6.212-2.34,9.692-8.834,11.033c-1.692,0.349-3.558,1.402-4.683,2.703
		c-5.615,6.504-15.649,6.13-20.787-0.958c-4.724-6.515-11.379-7.178-16.96-1.254c-3.749,3.979-7.718,7.146-13.198,8.305
		c-10.703,2.265-17.609,10.094-24.777,17.426c-0.864,0.885-1.146,2.662-1.147,4.024c-0.057,42.409-0.046,84.819-0.046,127.168
		c7.12,2.566,18.714,16.223,18.552,23.107c-6.239-2.842-12.014-5.471-18.207-8.291c-2.065,5.221-4.287,10.83-7.161,18.096
		C459.042,524.609,456.608,518.934,454.216,513.363z"/>
</g>
</svg>
