<svg xmlns="http://www.w3.org/2000/svg" width="17" height="14"><path fill="#1da1f2" fill-rule="evenodd" d="M14.92 3.36v.44c0 4.5-3.42 9.7-9.7 9.7-1.92 0-3.7-.56-5.22-1.53.27.03.54.05.8.05 1.6 0 3.08-.54 4.25-1.46-1.5-.02-2.75-1-3.2-2.36.22.03.43.06.65.06.3 0 .62-.05.9-.12C1.84 7.82.67 6.44.67 4.8v-.05c.46.26.98.4 1.54.43C1.3 4.56.7 3.52.7 2.34c0-.63.16-1.2.46-1.72C2.84 2.7 5.36 4.04 8.18 4.2c-.06-.26-.08-.52-.08-.8C8.1 1.54 9.62 0 11.5 0c.98 0 1.87.4 2.5 1.07.77-.15 1.5-.43 2.16-.82-.26.8-.8 1.46-1.5 1.88.7-.08 1.35-.26 1.96-.53-.46.68-1.04 1.28-1.7 1.76z"/></svg>